<mxfile host="app.diagrams.net" agent="Mozilla/5.0 (Macintosh; Intel Mac OS X 10_15_7) AppleWebKit/537.36 (KHTML, like Gecko) Chrome/134.0.0.0 Safari/537.36" version="26.1.1">
  <diagram name="第 1 页" id="2-aeYYM1CRxZSzicDS_i">
    <mxGraphModel dx="1242" dy="785" grid="0" gridSize="10" guides="1" tooltips="1" connect="1" arrows="1" fold="1" page="0" pageScale="1" pageWidth="827" pageHeight="1169" math="0" shadow="0">
      <root>
        <mxCell id="0" />
        <mxCell id="1" parent="0" />
        <mxCell id="cHH2p0PHme9dH51RubHS-1" value="AutoTaskControlller" style="shape=umlLifeline;perimeter=lifelinePerimeter;whiteSpace=wrap;html=1;container=1;collapsible=0;recursiveResize=0;outlineConnect=0;rounded=1;shadow=0;comic=0;labelBackgroundColor=none;strokeWidth=1;fontFamily=Verdana;fontSize=12;align=center;" vertex="1" parent="1">
          <mxGeometry x="260" y="80" width="100" height="740" as="geometry" />
        </mxCell>
        <mxCell id="cHH2p0PHme9dH51RubHS-2" value="" style="html=1;points=[];perimeter=orthogonalPerimeter;rounded=0;shadow=0;comic=0;labelBackgroundColor=none;strokeWidth=1;fontFamily=Verdana;fontSize=12;align=center;" vertex="1" parent="cHH2p0PHme9dH51RubHS-1">
          <mxGeometry x="45" y="100" width="10" height="575" as="geometry" />
        </mxCell>
        <mxCell id="cHH2p0PHme9dH51RubHS-3" value="AutoTaskRule&lt;span style=&quot;background-color: transparent; color: light-dark(rgb(0, 0, 0), rgb(255, 255, 255));&quot;&gt;Service&lt;/span&gt;" style="shape=umlLifeline;perimeter=lifelinePerimeter;whiteSpace=wrap;html=1;container=1;collapsible=0;recursiveResize=0;outlineConnect=0;rounded=1;shadow=0;comic=0;labelBackgroundColor=none;strokeWidth=1;fontFamily=Verdana;fontSize=12;align=center;" vertex="1" parent="1">
          <mxGeometry x="400" y="80" width="100" height="740" as="geometry" />
        </mxCell>
        <mxCell id="cHH2p0PHme9dH51RubHS-4" value="" style="html=1;points=[];perimeter=orthogonalPerimeter;rounded=0;shadow=0;comic=0;labelBackgroundColor=none;strokeWidth=1;fontFamily=Verdana;fontSize=12;align=center;" vertex="1" parent="cHH2p0PHme9dH51RubHS-3">
          <mxGeometry x="45" y="120" width="10" height="65" as="geometry" />
        </mxCell>
        <mxCell id="cHH2p0PHme9dH51RubHS-36" value="查询自动化规则详细信息（触发对象、触发事件等）" style="html=1;verticalAlign=bottom;endArrow=block;labelBackgroundColor=none;fontFamily=Verdana;fontSize=12;edgeStyle=elbowEdgeStyle;elbow=vertical;" edge="1" parent="cHH2p0PHme9dH51RubHS-3">
          <mxGeometry x="-0.0009" relative="1" as="geometry">
            <mxPoint x="55" y="125" as="sourcePoint" />
            <mxPoint x="605.5" y="125" as="targetPoint" />
            <mxPoint as="offset" />
          </mxGeometry>
        </mxCell>
        <mxCell id="cHH2p0PHme9dH51RubHS-43" value="返回详细信息" style="html=1;verticalAlign=bottom;endArrow=open;dashed=1;endSize=6;labelBackgroundColor=none;fontFamily=Verdana;fontSize=12;edgeStyle=elbowEdgeStyle;elbow=vertical;jumpSize=6;" edge="1" parent="cHH2p0PHme9dH51RubHS-3" source="cHH2p0PHme9dH51RubHS-3">
          <mxGeometry x="-0.0037" relative="1" as="geometry">
            <mxPoint x="-87" y="180" as="targetPoint" />
            <Array as="points">
              <mxPoint x="26" y="180" />
              <mxPoint x="56" y="180" />
            </Array>
            <mxPoint x="34" y="180" as="sourcePoint" />
            <mxPoint as="offset" />
          </mxGeometry>
        </mxCell>
        <mxCell id="cHH2p0PHme9dH51RubHS-8" value="TriggerService" style="shape=umlLifeline;perimeter=lifelinePerimeter;whiteSpace=wrap;html=1;container=1;collapsible=0;recursiveResize=0;outlineConnect=0;rounded=1;shadow=0;comic=0;labelBackgroundColor=none;strokeWidth=1;fontFamily=Verdana;fontSize=12;align=center;" vertex="1" parent="1">
          <mxGeometry x="540" y="80" width="100" height="740" as="geometry" />
        </mxCell>
        <mxCell id="cHH2p0PHme9dH51RubHS-10" value="计算进度" style="html=1;verticalAlign=bottom;endArrow=block;labelBackgroundColor=none;fontFamily=Verdana;fontSize=12;edgeStyle=elbowEdgeStyle;elbow=vertical;" edge="1" parent="cHH2p0PHme9dH51RubHS-8">
          <mxGeometry relative="1" as="geometry">
            <mxPoint x="-79" y="573.38" as="sourcePoint" />
            <mxPoint x="469.5" y="573" as="targetPoint" />
          </mxGeometry>
        </mxCell>
        <mxCell id="cHH2p0PHme9dH51RubHS-47" value="校验触发对象和触发规则是否符合要求" style="html=1;verticalAlign=bottom;endArrow=block;labelBackgroundColor=none;fontFamily=Verdana;fontSize=12;edgeStyle=elbowEdgeStyle;elbow=horizontal;" edge="1" parent="cHH2p0PHme9dH51RubHS-8">
          <mxGeometry x="0.0036" relative="1" as="geometry">
            <mxPoint x="55" y="282" as="sourcePoint" />
            <mxPoint x="330" y="282" as="targetPoint" />
            <mxPoint as="offset" />
          </mxGeometry>
        </mxCell>
        <mxCell id="cHH2p0PHme9dH51RubHS-52" value="存储触发对象和触发规则" style="html=1;verticalAlign=bottom;endArrow=block;labelBackgroundColor=none;fontFamily=Verdana;fontSize=12;edgeStyle=elbowEdgeStyle;elbow=vertical;" edge="1" parent="cHH2p0PHme9dH51RubHS-8">
          <mxGeometry x="-0.0009" relative="1" as="geometry">
            <mxPoint x="53" y="353" as="sourcePoint" />
            <mxPoint x="469.5" y="353" as="targetPoint" />
            <mxPoint as="offset" />
          </mxGeometry>
        </mxCell>
        <mxCell id="cHH2p0PHme9dH51RubHS-11" value="ExecutorService" style="shape=umlLifeline;perimeter=lifelinePerimeter;whiteSpace=wrap;html=1;container=1;collapsible=0;recursiveResize=0;outlineConnect=0;rounded=1;shadow=0;comic=0;labelBackgroundColor=none;strokeWidth=1;fontFamily=Verdana;fontSize=12;align=center;" vertex="1" parent="1">
          <mxGeometry x="680" y="80" width="100" height="740" as="geometry" />
        </mxCell>
        <mxCell id="cHH2p0PHme9dH51RubHS-48" value="返回校验结果" style="html=1;verticalAlign=bottom;endArrow=open;dashed=1;endSize=6;labelBackgroundColor=none;fontFamily=Verdana;fontSize=12;edgeStyle=elbowEdgeStyle;elbow=vertical;jumpSize=6;" edge="1" parent="cHH2p0PHme9dH51RubHS-11">
          <mxGeometry x="-0.0024" relative="1" as="geometry">
            <mxPoint x="-86.75" y="312" as="targetPoint" />
            <Array as="points">
              <mxPoint x="26.25" y="312" />
              <mxPoint x="56.25" y="312" />
            </Array>
            <mxPoint x="186.75" y="312" as="sourcePoint" />
            <mxPoint as="offset" />
          </mxGeometry>
        </mxCell>
        <mxCell id="cHH2p0PHme9dH51RubHS-17" value="ConditionCheckService" style="shape=umlLifeline;perimeter=lifelinePerimeter;whiteSpace=wrap;html=1;container=1;collapsible=0;recursiveResize=0;outlineConnect=0;rounded=1;shadow=0;comic=0;labelBackgroundColor=none;strokeWidth=1;fontFamily=Verdana;fontSize=12;align=center;" vertex="1" parent="1">
          <mxGeometry x="820" y="80" width="100" height="740" as="geometry" />
        </mxCell>
        <mxCell id="cHH2p0PHme9dH51RubHS-18" value="" style="html=1;points=[];perimeter=orthogonalPerimeter;rounded=0;shadow=0;comic=0;labelBackgroundColor=none;strokeWidth=1;fontFamily=Verdana;fontSize=12;align=center;" vertex="1" parent="cHH2p0PHme9dH51RubHS-17">
          <mxGeometry x="45" y="283" width="10" height="26" as="geometry" />
        </mxCell>
        <mxCell id="cHH2p0PHme9dH51RubHS-24" value="开始创建自动化规则" style="html=1;verticalAlign=bottom;endArrow=block;entryX=0;entryY=0;labelBackgroundColor=none;fontFamily=Verdana;fontSize=12;edgeStyle=elbowEdgeStyle;elbow=vertical;" edge="1" parent="1" source="cHH2p0PHme9dH51RubHS-31" target="cHH2p0PHme9dH51RubHS-2">
          <mxGeometry x="0.0037" relative="1" as="geometry">
            <mxPoint x="150" y="180" as="sourcePoint" />
            <mxPoint as="offset" />
          </mxGeometry>
        </mxCell>
        <mxCell id="cHH2p0PHme9dH51RubHS-25" value="get_auto_task_info()" style="html=1;verticalAlign=bottom;endArrow=block;entryX=0;entryY=0;labelBackgroundColor=none;fontFamily=Verdana;fontSize=12;edgeStyle=elbowEdgeStyle;elbow=vertical;" edge="1" parent="1" source="cHH2p0PHme9dH51RubHS-2" target="cHH2p0PHme9dH51RubHS-4">
          <mxGeometry relative="1" as="geometry">
            <mxPoint x="370" y="200" as="sourcePoint" />
          </mxGeometry>
        </mxCell>
        <mxCell id="cHH2p0PHme9dH51RubHS-26" value="Model" style="shape=umlLifeline;perimeter=lifelinePerimeter;whiteSpace=wrap;html=1;container=1;collapsible=0;recursiveResize=0;outlineConnect=0;rounded=1;shadow=0;comic=0;labelBackgroundColor=none;strokeWidth=1;fontFamily=Verdana;fontSize=12;align=center;" vertex="1" parent="1">
          <mxGeometry x="960" y="80" width="100" height="740" as="geometry" />
        </mxCell>
        <mxCell id="cHH2p0PHme9dH51RubHS-28" value="" style="html=1;points=[];perimeter=orthogonalPerimeter;rounded=0;shadow=0;comic=0;labelBackgroundColor=none;strokeWidth=1;fontFamily=Verdana;fontSize=12;align=center;" vertex="1" parent="cHH2p0PHme9dH51RubHS-26">
          <mxGeometry x="45" y="162" width="10" height="30" as="geometry" />
        </mxCell>
        <mxCell id="cHH2p0PHme9dH51RubHS-29" value="" style="html=1;points=[];perimeter=orthogonalPerimeter;rounded=0;shadow=0;comic=0;labelBackgroundColor=none;strokeWidth=1;fontFamily=Verdana;fontSize=12;align=center;" vertex="1" parent="cHH2p0PHme9dH51RubHS-26">
          <mxGeometry x="45" y="294" width="10" height="24" as="geometry" />
        </mxCell>
        <mxCell id="cHH2p0PHme9dH51RubHS-30" value="" style="html=1;points=[];perimeter=orthogonalPerimeter;rounded=0;shadow=0;comic=0;labelBackgroundColor=none;strokeWidth=1;fontFamily=Verdana;fontSize=12;align=center;" vertex="1" parent="cHH2p0PHme9dH51RubHS-26">
          <mxGeometry x="45" y="458" width="10" height="37" as="geometry" />
        </mxCell>
        <mxCell id="cHH2p0PHme9dH51RubHS-31" value="" style="shape=umlLifeline;perimeter=lifelinePerimeter;whiteSpace=wrap;html=1;container=1;dropTarget=0;collapsible=0;recursiveResize=0;outlineConnect=0;portConstraint=eastwest;newEdgeStyle={&quot;curved&quot;:0,&quot;rounded&quot;:0};participant=umlActor;" vertex="1" parent="1">
          <mxGeometry x="147" y="80" width="46" height="740" as="geometry" />
        </mxCell>
        <mxCell id="cHH2p0PHme9dH51RubHS-34" value="返回进度数据" style="html=1;verticalAlign=bottom;endArrow=open;dashed=1;endSize=6;labelBackgroundColor=none;fontFamily=Verdana;fontSize=12;edgeStyle=elbowEdgeStyle;elbow=vertical;jumpSize=6;" edge="1" parent="1">
          <mxGeometry x="-0.0024" relative="1" as="geometry">
            <mxPoint x="453.00352941176465" y="696" as="targetPoint" />
            <Array as="points">
              <mxPoint x="826.6800000000001" y="696" />
              <mxPoint x="856.6800000000001" y="696" />
            </Array>
            <mxPoint x="1011.6800000000001" y="696" as="sourcePoint" />
            <mxPoint as="offset" />
          </mxGeometry>
        </mxCell>
        <mxCell id="cHH2p0PHme9dH51RubHS-41" value="返回迭代视图" style="html=1;verticalAlign=bottom;endArrow=open;dashed=1;endSize=6;labelBackgroundColor=none;fontFamily=Verdana;fontSize=12;edgeStyle=elbowEdgeStyle;elbow=vertical;jumpSize=6;" edge="1" parent="1">
          <mxGeometry x="-0.0024" relative="1" as="geometry">
            <mxPoint x="170" y="752" as="targetPoint" />
            <Array as="points">
              <mxPoint x="250" y="752" />
              <mxPoint x="280" y="752" />
            </Array>
            <mxPoint x="309" y="752" as="sourcePoint" />
            <mxPoint as="offset" />
          </mxGeometry>
        </mxCell>
        <mxCell id="cHH2p0PHme9dH51RubHS-42" value="聚合结果" style="html=1;verticalAlign=bottom;endArrow=open;dashed=1;endSize=6;labelBackgroundColor=none;fontFamily=Verdana;fontSize=12;edgeStyle=elbowEdgeStyle;elbow=vertical;jumpSize=6;" edge="1" parent="1">
          <mxGeometry x="0.013" relative="1" as="geometry">
            <mxPoint x="317" y="730" as="targetPoint" />
            <Array as="points">
              <mxPoint x="397" y="730" />
              <mxPoint x="427" y="730" />
            </Array>
            <mxPoint x="440" y="730" as="sourcePoint" />
            <mxPoint as="offset" />
          </mxGeometry>
        </mxCell>
        <mxCell id="cHH2p0PHme9dH51RubHS-37" value="返回自动化规则详细信息" style="html=1;verticalAlign=bottom;endArrow=open;dashed=1;endSize=6;labelBackgroundColor=none;fontFamily=Verdana;fontSize=12;edgeStyle=elbowEdgeStyle;elbow=vertical;jumpSize=6;" edge="1" parent="1">
          <mxGeometry x="0.0454" y="-2" relative="1" as="geometry">
            <mxPoint x="454" y="240" as="targetPoint" />
            <Array as="points">
              <mxPoint x="651" y="240" />
              <mxPoint x="681" y="240" />
            </Array>
            <mxPoint x="1005" y="240" as="sourcePoint" />
            <mxPoint as="offset" />
          </mxGeometry>
        </mxCell>
        <mxCell id="cHH2p0PHme9dH51RubHS-44" value="返回详细信息" style="html=1;verticalAlign=bottom;endArrow=open;dashed=1;endSize=6;labelBackgroundColor=none;fontFamily=Verdana;fontSize=12;edgeStyle=elbowEdgeStyle;elbow=vertical;jumpSize=6;" edge="1" parent="1">
          <mxGeometry x="-0.0037" relative="1" as="geometry">
            <mxPoint x="169" y="272" as="targetPoint" />
            <Array as="points">
              <mxPoint x="282" y="272" />
              <mxPoint x="312" y="272" />
            </Array>
            <mxPoint x="306" y="272" as="sourcePoint" />
            <mxPoint as="offset" />
          </mxGeometry>
        </mxCell>
        <mxCell id="cHH2p0PHme9dH51RubHS-45" value="创建触发对象和触发规则" style="html=1;verticalAlign=bottom;endArrow=block;entryX=0;entryY=0;labelBackgroundColor=none;fontFamily=Verdana;fontSize=12;edgeStyle=elbowEdgeStyle;elbow=vertical;" edge="1" parent="1">
          <mxGeometry x="0.0037" relative="1" as="geometry">
            <mxPoint x="171" y="325" as="sourcePoint" />
            <mxPoint as="offset" />
            <mxPoint x="306" y="325" as="targetPoint" />
          </mxGeometry>
        </mxCell>
        <mxCell id="cHH2p0PHme9dH51RubHS-46" value="create_trigger()" style="html=1;verticalAlign=bottom;endArrow=block;labelBackgroundColor=none;fontFamily=Verdana;fontSize=12;edgeStyle=elbowEdgeStyle;elbow=horizontal;" edge="1" parent="1">
          <mxGeometry x="0.0037" relative="1" as="geometry">
            <mxPoint x="312" y="346" as="sourcePoint" />
            <mxPoint as="offset" />
            <mxPoint x="588" y="346" as="targetPoint" />
          </mxGeometry>
        </mxCell>
        <mxCell id="cHH2p0PHme9dH51RubHS-49" value="ALT" style="shape=umlFrame;whiteSpace=wrap;html=1;pointerEvents=0;" vertex="1" parent="1">
          <mxGeometry x="92" y="410" width="965" height="200" as="geometry" />
        </mxCell>
        <mxCell id="cHH2p0PHme9dH51RubHS-51" value="返回创建成功" style="html=1;verticalAlign=bottom;endArrow=open;dashed=1;endSize=6;labelBackgroundColor=none;fontFamily=Verdana;fontSize=12;edgeStyle=elbowEdgeStyle;elbow=vertical;jumpSize=6;" edge="1" parent="1">
          <mxGeometry x="-0.0024" relative="1" as="geometry">
            <mxPoint x="316" y="479" as="targetPoint" />
            <Array as="points">
              <mxPoint x="429" y="479" />
              <mxPoint x="459" y="479" />
            </Array>
            <mxPoint x="589.5" y="479" as="sourcePoint" />
            <mxPoint as="offset" />
          </mxGeometry>
        </mxCell>
        <mxCell id="cHH2p0PHme9dH51RubHS-53" value="返回存储信息" style="html=1;verticalAlign=bottom;endArrow=open;dashed=1;endSize=6;labelBackgroundColor=none;fontFamily=Verdana;fontSize=12;edgeStyle=elbowEdgeStyle;elbow=vertical;jumpSize=6;" edge="1" parent="1">
          <mxGeometry x="0.0454" y="-2" relative="1" as="geometry">
            <mxPoint x="591" y="464" as="targetPoint" />
            <Array as="points">
              <mxPoint x="788" y="464" />
              <mxPoint x="818" y="464" />
            </Array>
            <mxPoint x="1006" y="464" as="sourcePoint" />
            <mxPoint as="offset" />
          </mxGeometry>
        </mxCell>
        <mxCell id="cHH2p0PHme9dH51RubHS-55" value="前端展示创建成功" style="html=1;verticalAlign=bottom;endArrow=open;dashed=1;endSize=6;labelBackgroundColor=none;fontFamily=Verdana;fontSize=12;edgeStyle=elbowEdgeStyle;elbow=vertical;jumpSize=6;" edge="1" parent="1">
          <mxGeometry x="-0.0024" relative="1" as="geometry">
            <mxPoint x="173.25" y="496" as="targetPoint" />
            <Array as="points">
              <mxPoint x="286.25" y="496" />
              <mxPoint x="316.25" y="496" />
            </Array>
            <mxPoint x="300" y="496" as="sourcePoint" />
            <mxPoint as="offset" />
          </mxGeometry>
        </mxCell>
        <mxCell id="cHH2p0PHme9dH51RubHS-50" value="返回创建失败" style="html=1;verticalAlign=bottom;endArrow=open;dashed=1;endSize=6;labelBackgroundColor=none;fontFamily=Verdana;fontSize=12;edgeStyle=elbowEdgeStyle;elbow=vertical;jumpSize=6;" edge="1" parent="1">
          <mxGeometry x="-0.0024" relative="1" as="geometry">
            <mxPoint x="313.25" y="553" as="targetPoint" />
            <Array as="points">
              <mxPoint x="426.25" y="553" />
              <mxPoint x="456.25" y="553" />
            </Array>
            <mxPoint x="586.75" y="553" as="sourcePoint" />
            <mxPoint as="offset" />
          </mxGeometry>
        </mxCell>
        <mxCell id="cHH2p0PHme9dH51RubHS-56" value="前端展示创建失败" style="html=1;verticalAlign=bottom;endArrow=open;dashed=1;endSize=6;labelBackgroundColor=none;fontFamily=Verdana;fontSize=12;edgeStyle=elbowEdgeStyle;elbow=vertical;jumpSize=6;" edge="1" parent="1">
          <mxGeometry x="-0.0024" relative="1" as="geometry">
            <mxPoint x="173.25" y="575" as="targetPoint" />
            <Array as="points">
              <mxPoint x="286.25" y="575" />
              <mxPoint x="316.25" y="575" />
            </Array>
            <mxPoint x="302" y="575" as="sourcePoint" />
            <mxPoint as="offset" />
          </mxGeometry>
        </mxCell>
      </root>
    </mxGraphModel>
  </diagram>
</mxfile>
